<svg xmlns="http://www.w3.org/2000/svg" xmlns:xlink="http://www.w3.org/1999/xlink" version="1.0" x="0" y="0" width="2400" height="2754.265100815717" viewBox="139.4 89.88312377929688 61.2 70.23376007080078" preserveAspectRatio="xMidYMid meet" color-interpolation-filters="sRGB"><g><defs><linearGradient id="92" x1="0%" y1="0%" x2="100%" y2="0%"><stop offset="0%" stop-color="#fa71cd"></stop> <stop offset="100%" stop-color="#9b59b6"></stop></linearGradient><linearGradient id="93" x1="0%" y1="0%" x2="100%" y2="0%"><stop offset="0%" stop-color="#f9d423"></stop> <stop offset="100%" stop-color="#f83600"></stop></linearGradient><linearGradient id="94" x1="0%" y1="0%" x2="100%" y2="0%"><stop offset="0%" stop-color="#0064d2"></stop> <stop offset="100%" stop-color="#1cb0f6"></stop></linearGradient><linearGradient id="95" x1="0%" y1="0%" x2="100%" y2="0%"><stop offset="0%" stop-color="#f00978"></stop> <stop offset="100%" stop-color="#3f51b1"></stop></linearGradient><linearGradient id="96" x1="0%" y1="0%" x2="100%" y2="0%"><stop offset="0%" stop-color="#7873f5"></stop> <stop offset="100%" stop-color="#ec77ab"></stop></linearGradient><linearGradient id="97" x1="0%" y1="0%" x2="100%" y2="0%"><stop offset="0%" stop-color="#f9d423"></stop> <stop offset="100%" stop-color="#e14fad"></stop></linearGradient><linearGradient id="98" x1="0%" y1="0%" x2="100%" y2="0%"><stop offset="0%" stop-color="#009efd"></stop> <stop offset="100%" stop-color="#2af598"></stop></linearGradient><linearGradient id="99" x1="0%" y1="0%" x2="100%" y2="0%"><stop offset="0%" stop-color="#ffcc00"></stop> <stop offset="100%" stop-color="#00b140"></stop></linearGradient><linearGradient id="100" x1="0%" y1="0%" x2="100%" y2="0%"><stop offset="0%" stop-color="#d51007"></stop> <stop offset="100%" stop-color="#ff8177"></stop></linearGradient><linearGradient id="102" x1="0%" y1="0%" x2="100%" y2="0%"><stop offset="0%" stop-color="#a2b6df"></stop> <stop offset="100%" stop-color="#0c3483"></stop></linearGradient><linearGradient id="103" x1="0%" y1="0%" x2="100%" y2="0%"><stop offset="0%" stop-color="#7ac5d8"></stop> <stop offset="100%" stop-color="#eea2a2"></stop></linearGradient><linearGradient id="104" x1="0%" y1="0%" x2="100%" y2="0%"><stop offset="0%" stop-color="#00ecbc"></stop> <stop offset="100%" stop-color="#007adf"></stop></linearGradient><linearGradient id="105" x1="0%" y1="0%" x2="100%" y2="0%"><stop offset="0%" stop-color="#b88746"></stop> <stop offset="100%" stop-color="#fdf5a6"></stop></linearGradient></defs><g class="imagesvg isNoFont" transform="translate(140,90.48311996459961)"><g><rect fill="#ffffff" fill-opacity="0" stroke-width="2" x="0" y="0" width="60" height="69.03375750742113" class="image-rect"></rect> <svg x="0" y="0" width="60" height="69.03375750742113" filtersec="colorsb3633017050" class="image-svg-svg primary" style="overflow: visible;"><svg xmlns="http://www.w3.org/2000/svg" viewBox="1.3353747129440308 1.6189160346984863 459.45465087890625 528.6287231445312"><path fill="#eb1600" d="M 2.70 252.24 C 22.85 201.68 42.24 152.56 61.81 103.54 Q 63.12 100.25 66.79 98.33 Q 166.72 46.10 249.30 2.85 C 252.03 1.42 254.81 1.14 257.65 2.52 Q 394.79 69.00 454.86 98.16 C 459.07 100.20 460.78 103.29 460.78 107.96 Q 460.64 268.33 460.79 431.10 Q 460.80 437.54 455.10 440.19 Q 360.19 484.25 263.35 529.18 Q 258.98 531.21 254.90 529.38 Q 161.72 487.61 62.81 443.45 C 57.50 441.07 57.18 436.44 55.62 431.48 Q 29.19 347.25 1.74 259.93 C 0.82 257.00 1.61 254.95 2.70 252.24 Z M 223.04 97.46 A 0.30 0.30 0.0 0 0 223.34 97.23 L 240.28 28.11 A 0.30 0.30 0.0 0 0 239.85 27.77 L 107.63 96.95 A 0.30 0.30 0.0 0 0 107.77 97.52 L 223.04 97.46 Z M 411.56 97.54 A 0.31 0.31 0.0 0 0 411.69 96.95 L 273.08 29.80 A 0.31 0.31 0.0 0 0 272.67 30.21 L 304.35 97.31 A 0.31 0.31 0.0 0 0 304.63 97.49 L 411.56 97.54 Z M 258.31 41.19 C 257.98 40.49 257.90 39.65 257.70 39.13 Q 256.53 35.99 255.34 39.13 C 254.56 41.18 254.82 43.54 254.26 45.83 Q 248.49 69.73 242.50 93.71 Q 242.24 94.75 241.84 95.70 A 1.44 1.43 10.6 0 0 243.20 97.68 Q 262.25 97.23 283.33 97.64 A 0.87 0.87 0.0 0 0 284.14 96.40 Q 271.63 69.70 258.31 41.19 Z M 193.30 218.85 A 0.30 0.30 0.0 0 0 193.81 218.71 L 218.92 115.72 A 0.30 0.30 0.0 0 0 218.63 115.35 L 92.15 115.37 A 0.30 0.30 0.0 0 0 91.93 115.88 L 193.30 218.85 Z M 313.41 115.36 A 0.41 0.41 0.0 0 0 313.04 115.94 L 332.51 157.51 A 0.41 0.41 0.0 0 0 333.07 157.71 L 414.02 116.01 A 0.41 0.41 0.0 0 0 413.83 115.23 L 313.41 115.36 Z M 238.08 115.34 A 0.98 0.98 0.0 0 0 237.13 116.09 L 212.15 218.14 A 0.98 0.98 0.0 0 0 213.55 219.24 L 316.07 166.42 A 0.98 0.98 0.0 0 0 316.51 165.13 L 293.33 115.86 A 0.98 0.98 0.0 0 0 292.44 115.30 L 238.08 115.34 Z M 379.35 257.10 A 0.58 0.58 0.0 0 0 380.41 257.07 L 433.82 126.89 A 0.58 0.58 0.0 0 0 433.02 126.15 L 340.72 173.62 A 0.58 0.58 0.0 0 0 340.46 174.39 L 379.35 257.10 Z M 94.15 280.03 A 0.40 0.40 0.0 0 0 94.73 280.35 L 183.30 234.76 A 0.40 0.40 0.0 0 0 183.40 234.12 L 82.02 131.24 A 0.40 0.40 0.0 0 0 81.34 131.56 L 94.15 280.03 Z M 59.84 156.86 C 47.09 188.81 34.40 220.43 21.97 252.08 A 0.97 0.97 0.0 0 0 22.45 253.30 L 75.06 278.92 A 0.87 0.87 0.0 0 0 76.30 278.01 Q 75.50 272.42 75.15 266.69 Q 74.83 261.44 74.24 255.34 Q 71.00 221.82 68.45 188.25 Q 67.93 181.49 66.85 170.82 Q 65.95 161.96 65.29 153.32 C 65.13 151.19 65.25 149.03 65.22 146.90 A 0.81 0.79 -75.0 0 0 64.83 146.21 Q 63.98 145.72 63.22 146.54 A 1.43 1.41 -16.6 0 0 62.89 147.14 C 62.00 150.46 61.09 153.71 59.84 156.86 Z M 436.31 167.50 C 421.53 203.68 406.60 239.82 391.71 275.97 Q 391.14 277.35 390.67 278.80 C 389.93 281.11 392.07 284.10 393.02 286.13 Q 415.54 334.14 438.32 382.48 C 439.63 385.26 440.05 388.20 441.82 390.71 Q 442.68 391.92 442.84 390.44 Q 442.96 389.30 442.97 388.21 Q 443.32 281.14 443.06 156.50 Q 443.05 154.99 442.68 153.34 Q 442.37 151.93 441.66 153.19 C 440.68 154.94 440.07 156.39 439.54 158.48 Q 438.78 161.46 436.31 167.50 Z M 225.29 233.00 A 0.56 0.56 0.0 0 0 225.42 234.04 L 363.37 266.94 A 0.56 0.56 0.0 0 0 364.01 266.16 L 324.72 182.50 A 0.56 0.56 0.0 0 0 323.95 182.24 L 225.29 233.00 Z M 191.51 251.20 A 0.56 0.56 0.0 0 0 190.69 250.77 L 103.18 295.83 A 0.56 0.56 0.0 0 0 103.07 296.76 L 208.46 385.41 A 0.56 0.56 0.0 0 0 209.38 384.91 L 191.51 251.20 Z M 335.95 363.57 A 0.41 0.41 0.0 0 0 336.63 363.44 L 368.11 286.86 A 0.41 0.41 0.0 0 0 367.82 286.31 L 227.94 252.93 A 0.41 0.41 0.0 0 0 227.55 253.62 L 335.95 363.57 Z M 236.54 395.32 Q 262.73 388.87 292.00 382.05 Q 303.42 379.39 314.71 376.50 C 316.94 375.93 319.10 375.89 321.17 374.84 A 0.71 0.70 -41.1 0 0 321.26 373.63 Q 319.60 372.48 318.31 371.17 Q 272.36 324.36 227.24 278.75 Q 220.20 271.63 213.88 264.75 Q 209.32 259.78 211.05 266.31 Q 212.84 273.08 213.34 279.86 C 213.81 286.13 215.15 292.11 215.71 298.29 C 216.14 302.99 217.28 307.60 217.74 312.24 C 218.57 320.56 219.95 328.34 220.88 336.62 C 221.34 340.80 222.33 344.90 222.65 349.10 C 223.19 356.24 224.74 363.31 225.40 370.40 C 225.81 374.82 226.97 379.10 227.33 383.57 Q 227.81 389.61 228.62 395.68 A 1.36 1.36 0.0 0 0 230.28 396.82 Q 233.43 396.09 236.54 395.32 Z M 76.73 299.84 A 0.33 0.33 0.0 0 0 76.54 299.49 L 25.71 274.70 A 0.33 0.33 0.0 0 0 25.25 275.09 L 62.49 394.00 A 0.33 0.33 0.0 0 0 63.13 393.95 L 76.73 299.84 Z M 432.16 413.06 A 0.45 0.45 0.0 0 0 432.75 412.46 L 381.36 303.09 A 0.45 0.45 0.0 0 0 380.53 303.11 L 351.20 374.95 A 0.45 0.45 0.0 0 0 351.43 375.53 L 432.16 413.06 Z M 199.65 402.76 A 0.72 0.72 0.0 0 0 199.99 401.50 L 93.95 312.35 A 0.72 0.72 0.0 0 0 92.77 312.80 L 76.81 423.33 A 0.72 0.72 0.0 0 0 77.65 424.14 L 199.65 402.76 Z M 397.24 416.50 L 344.79 392.16 A 1.87 1.87 0.0 0 0 342.38 392.93 L 332.90 409.53 A 0.99 0.99 0.0 0 0 333.81 411.01 C 338.60 410.75 343.42 411.89 348.13 412.21 Q 354.74 412.66 361.28 413.44 C 370.00 414.49 378.85 414.99 387.60 416.31 Q 392.17 417.00 397.05 417.25 Q 399.08 417.36 397.24 416.50 Z M 313.29 407.66 L 320.84 395.09 A 1.08 1.08 0.0 0 0 319.75 393.46 C 317.93 393.73 316.31 394.62 314.49 395.02 Q 303.26 397.52 292.08 400.42 Q 285.67 402.08 278.62 403.35 Q 277.24 403.60 275.72 404.60 Q 275.14 404.97 275.83 405.02 Q 294.12 406.32 311.80 408.39 A 1.54 1.54 0.0 0 0 313.29 407.66 Z M 97.19 438.81 A 0.30 0.30 0.0 0 0 97.12 439.38 L 243.50 504.71 A 0.30 0.30 0.0 0 0 243.91 504.35 L 215.56 418.31 A 0.30 0.30 0.0 0 0 215.22 418.10 L 97.19 438.81 Z M 303.02 426.04 A 0.54 0.54 0.0 0 0 302.60 425.24 L 235.15 418.38 A 0.54 0.54 0.0 0 0 234.58 419.09 L 260.59 498.47 A 0.54 0.54 0.0 0 0 261.57 498.57 L 303.02 426.04 Z M 285.33 493.26 Q 283.50 496.50 281.40 499.03 Q 279.39 501.46 282.49 500.90 C 284.22 500.59 285.96 499.18 287.58 498.42 Q 345.97 471.25 407.33 442.78 C 410.76 441.19 414.47 440.05 417.50 437.94 Q 419.00 436.89 417.18 436.70 C 415.21 436.50 413.26 436.76 411.27 436.58 Q 400.60 435.59 386.24 434.05 Q 355.95 430.80 323.82 427.64 A 2.15 2.14 -76.2 0 0 321.62 428.98 Q 321.15 430.14 320.54 431.22 Q 302.77 462.45 285.33 493.26 Z"></path></svg></svg> </g></g><defs v-gra="od"></defs></g></svg>