<svg xmlns="http://www.w3.org/2000/svg" xmlns:xlink="http://www.w3.org/1999/xlink" version="1.0" x="0" y="0" width="2400" height="702.2922670079796" viewBox="43.57099533081055 88.00412368774414 252.8580093383789 73.99176025390625" preserveAspectRatio="xMidYMid meet" color-interpolation-filters="sRGB"><g><defs><linearGradient id="92" x1="0%" y1="0%" x2="100%" y2="0%"><stop offset="0%" stop-color="#fa71cd"></stop> <stop offset="100%" stop-color="#9b59b6"></stop></linearGradient><linearGradient id="93" x1="0%" y1="0%" x2="100%" y2="0%"><stop offset="0%" stop-color="#f9d423"></stop> <stop offset="100%" stop-color="#f83600"></stop></linearGradient><linearGradient id="94" x1="0%" y1="0%" x2="100%" y2="0%"><stop offset="0%" stop-color="#0064d2"></stop> <stop offset="100%" stop-color="#1cb0f6"></stop></linearGradient><linearGradient id="95" x1="0%" y1="0%" x2="100%" y2="0%"><stop offset="0%" stop-color="#f00978"></stop> <stop offset="100%" stop-color="#3f51b1"></stop></linearGradient><linearGradient id="96" x1="0%" y1="0%" x2="100%" y2="0%"><stop offset="0%" stop-color="#7873f5"></stop> <stop offset="100%" stop-color="#ec77ab"></stop></linearGradient><linearGradient id="97" x1="0%" y1="0%" x2="100%" y2="0%"><stop offset="0%" stop-color="#f9d423"></stop> <stop offset="100%" stop-color="#e14fad"></stop></linearGradient><linearGradient id="98" x1="0%" y1="0%" x2="100%" y2="0%"><stop offset="0%" stop-color="#009efd"></stop> <stop offset="100%" stop-color="#2af598"></stop></linearGradient><linearGradient id="99" x1="0%" y1="0%" x2="100%" y2="0%"><stop offset="0%" stop-color="#ffcc00"></stop> <stop offset="100%" stop-color="#00b140"></stop></linearGradient><linearGradient id="100" x1="0%" y1="0%" x2="100%" y2="0%"><stop offset="0%" stop-color="#d51007"></stop> <stop offset="100%" stop-color="#ff8177"></stop></linearGradient><linearGradient id="102" x1="0%" y1="0%" x2="100%" y2="0%"><stop offset="0%" stop-color="#a2b6df"></stop> <stop offset="100%" stop-color="#0c3483"></stop></linearGradient><linearGradient id="103" x1="0%" y1="0%" x2="100%" y2="0%"><stop offset="0%" stop-color="#7ac5d8"></stop> <stop offset="100%" stop-color="#eea2a2"></stop></linearGradient><linearGradient id="104" x1="0%" y1="0%" x2="100%" y2="0%"><stop offset="0%" stop-color="#00ecbc"></stop> <stop offset="100%" stop-color="#007adf"></stop></linearGradient><linearGradient id="105" x1="0%" y1="0%" x2="100%" y2="0%"><stop offset="0%" stop-color="#b88746"></stop> <stop offset="100%" stop-color="#fdf5a6"></stop></linearGradient></defs><g fill="#333333" class="icon-text-wrapper icon-svg-group iconsvg" transform="translate(46.04999542236328,90.48311996459961)"><g class="iconsvg-imagesvg" transform="translate(0,0)"><g><rect fill="#333333" fill-opacity="0" stroke-width="2" x="0" y="0" width="60" height="69.03375750742113" class="image-rect"></rect> <svg x="0" y="0" width="60" height="69.03375750742113" filtersec="colorsb102618701" class="image-svg-svg primary" style="overflow: visible;"><svg xmlns="http://www.w3.org/2000/svg" viewBox="1.3353747129440308 1.6189160346984863 459.45465087890625 528.6287231445312"><path fill="#eb1600" d="M 2.70 252.24 C 22.85 201.68 42.24 152.56 61.81 103.54 Q 63.12 100.25 66.79 98.33 Q 166.72 46.10 249.30 2.85 C 252.03 1.42 254.81 1.14 257.65 2.52 Q 394.79 69.00 454.86 98.16 C 459.07 100.20 460.78 103.29 460.78 107.96 Q 460.64 268.33 460.79 431.10 Q 460.80 437.54 455.10 440.19 Q 360.19 484.25 263.35 529.18 Q 258.98 531.21 254.90 529.38 Q 161.72 487.61 62.81 443.45 C 57.50 441.07 57.18 436.44 55.62 431.48 Q 29.19 347.25 1.74 259.93 C 0.82 257.00 1.61 254.95 2.70 252.24 Z M 223.04 97.46 A 0.30 0.30 0.0 0 0 223.34 97.23 L 240.28 28.11 A 0.30 0.30 0.0 0 0 239.85 27.77 L 107.63 96.95 A 0.30 0.30 0.0 0 0 107.77 97.52 L 223.04 97.46 Z M 411.56 97.54 A 0.31 0.31 0.0 0 0 411.69 96.95 L 273.08 29.80 A 0.31 0.31 0.0 0 0 272.67 30.21 L 304.35 97.31 A 0.31 0.31 0.0 0 0 304.63 97.49 L 411.56 97.54 Z M 258.31 41.19 C 257.98 40.49 257.90 39.65 257.70 39.13 Q 256.53 35.99 255.34 39.13 C 254.56 41.18 254.82 43.54 254.26 45.83 Q 248.49 69.73 242.50 93.71 Q 242.24 94.75 241.84 95.70 A 1.44 1.43 10.6 0 0 243.20 97.68 Q 262.25 97.23 283.33 97.64 A 0.87 0.87 0.0 0 0 284.14 96.40 Q 271.63 69.70 258.31 41.19 Z M 193.30 218.85 A 0.30 0.30 0.0 0 0 193.81 218.71 L 218.92 115.72 A 0.30 0.30 0.0 0 0 218.63 115.35 L 92.15 115.37 A 0.30 0.30 0.0 0 0 91.93 115.88 L 193.30 218.85 Z M 313.41 115.36 A 0.41 0.41 0.0 0 0 313.04 115.94 L 332.51 157.51 A 0.41 0.41 0.0 0 0 333.07 157.71 L 414.02 116.01 A 0.41 0.41 0.0 0 0 413.83 115.23 L 313.41 115.36 Z M 238.08 115.34 A 0.98 0.98 0.0 0 0 237.13 116.09 L 212.15 218.14 A 0.98 0.98 0.0 0 0 213.55 219.24 L 316.07 166.42 A 0.98 0.98 0.0 0 0 316.51 165.13 L 293.33 115.86 A 0.98 0.98 0.0 0 0 292.44 115.30 L 238.08 115.34 Z M 379.35 257.10 A 0.58 0.58 0.0 0 0 380.41 257.07 L 433.82 126.89 A 0.58 0.58 0.0 0 0 433.02 126.15 L 340.72 173.62 A 0.58 0.58 0.0 0 0 340.46 174.39 L 379.35 257.10 Z M 94.15 280.03 A 0.40 0.40 0.0 0 0 94.73 280.35 L 183.30 234.76 A 0.40 0.40 0.0 0 0 183.40 234.12 L 82.02 131.24 A 0.40 0.40 0.0 0 0 81.34 131.56 L 94.15 280.03 Z M 59.84 156.86 C 47.09 188.81 34.40 220.43 21.97 252.08 A 0.97 0.97 0.0 0 0 22.45 253.30 L 75.06 278.92 A 0.87 0.87 0.0 0 0 76.30 278.01 Q 75.50 272.42 75.15 266.69 Q 74.83 261.44 74.24 255.34 Q 71.00 221.82 68.45 188.25 Q 67.93 181.49 66.85 170.82 Q 65.95 161.96 65.29 153.32 C 65.13 151.19 65.25 149.03 65.22 146.90 A 0.81 0.79 -75.0 0 0 64.83 146.21 Q 63.98 145.72 63.22 146.54 A 1.43 1.41 -16.6 0 0 62.89 147.14 C 62.00 150.46 61.09 153.71 59.84 156.86 Z M 436.31 167.50 C 421.53 203.68 406.60 239.82 391.71 275.97 Q 391.14 277.35 390.67 278.80 C 389.93 281.11 392.07 284.10 393.02 286.13 Q 415.54 334.14 438.32 382.48 C 439.63 385.26 440.05 388.20 441.82 390.71 Q 442.68 391.92 442.84 390.44 Q 442.96 389.30 442.97 388.21 Q 443.32 281.14 443.06 156.50 Q 443.05 154.99 442.68 153.34 Q 442.37 151.93 441.66 153.19 C 440.68 154.94 440.07 156.39 439.54 158.48 Q 438.78 161.46 436.31 167.50 Z M 225.29 233.00 A 0.56 0.56 0.0 0 0 225.42 234.04 L 363.37 266.94 A 0.56 0.56 0.0 0 0 364.01 266.16 L 324.72 182.50 A 0.56 0.56 0.0 0 0 323.95 182.24 L 225.29 233.00 Z M 191.51 251.20 A 0.56 0.56 0.0 0 0 190.69 250.77 L 103.18 295.83 A 0.56 0.56 0.0 0 0 103.07 296.76 L 208.46 385.41 A 0.56 0.56 0.0 0 0 209.38 384.91 L 191.51 251.20 Z M 335.95 363.57 A 0.41 0.41 0.0 0 0 336.63 363.44 L 368.11 286.86 A 0.41 0.41 0.0 0 0 367.82 286.31 L 227.94 252.93 A 0.41 0.41 0.0 0 0 227.55 253.62 L 335.95 363.57 Z M 236.54 395.32 Q 262.73 388.87 292.00 382.05 Q 303.42 379.39 314.71 376.50 C 316.94 375.93 319.10 375.89 321.17 374.84 A 0.71 0.70 -41.1 0 0 321.26 373.63 Q 319.60 372.48 318.31 371.17 Q 272.36 324.36 227.24 278.75 Q 220.20 271.63 213.88 264.75 Q 209.32 259.78 211.05 266.31 Q 212.84 273.08 213.34 279.86 C 213.81 286.13 215.15 292.11 215.71 298.29 C 216.14 302.99 217.28 307.60 217.74 312.24 C 218.57 320.56 219.95 328.34 220.88 336.62 C 221.34 340.80 222.33 344.90 222.65 349.10 C 223.19 356.24 224.74 363.31 225.40 370.40 C 225.81 374.82 226.97 379.10 227.33 383.57 Q 227.81 389.61 228.62 395.68 A 1.36 1.36 0.0 0 0 230.28 396.82 Q 233.43 396.09 236.54 395.32 Z M 76.73 299.84 A 0.33 0.33 0.0 0 0 76.54 299.49 L 25.71 274.70 A 0.33 0.33 0.0 0 0 25.25 275.09 L 62.49 394.00 A 0.33 0.33 0.0 0 0 63.13 393.95 L 76.73 299.84 Z M 432.16 413.06 A 0.45 0.45 0.0 0 0 432.75 412.46 L 381.36 303.09 A 0.45 0.45 0.0 0 0 380.53 303.11 L 351.20 374.95 A 0.45 0.45 0.0 0 0 351.43 375.53 L 432.16 413.06 Z M 199.65 402.76 A 0.72 0.72 0.0 0 0 199.99 401.50 L 93.95 312.35 A 0.72 0.72 0.0 0 0 92.77 312.80 L 76.81 423.33 A 0.72 0.72 0.0 0 0 77.65 424.14 L 199.65 402.76 Z M 397.24 416.50 L 344.79 392.16 A 1.87 1.87 0.0 0 0 342.38 392.93 L 332.90 409.53 A 0.99 0.99 0.0 0 0 333.81 411.01 C 338.60 410.75 343.42 411.89 348.13 412.21 Q 354.74 412.66 361.28 413.44 C 370.00 414.49 378.85 414.99 387.60 416.31 Q 392.17 417.00 397.05 417.25 Q 399.08 417.36 397.24 416.50 Z M 313.29 407.66 L 320.84 395.09 A 1.08 1.08 0.0 0 0 319.75 393.46 C 317.93 393.73 316.31 394.62 314.49 395.02 Q 303.26 397.52 292.08 400.42 Q 285.67 402.08 278.62 403.35 Q 277.24 403.60 275.72 404.60 Q 275.14 404.97 275.83 405.02 Q 294.12 406.32 311.80 408.39 A 1.54 1.54 0.0 0 0 313.29 407.66 Z M 97.19 438.81 A 0.30 0.30 0.0 0 0 97.12 439.38 L 243.50 504.71 A 0.30 0.30 0.0 0 0 243.91 504.35 L 215.56 418.31 A 0.30 0.30 0.0 0 0 215.22 418.10 L 97.19 438.81 Z M 303.02 426.04 A 0.54 0.54 0.0 0 0 302.60 425.24 L 235.15 418.38 A 0.54 0.54 0.0 0 0 234.58 419.09 L 260.59 498.47 A 0.54 0.54 0.0 0 0 261.57 498.57 L 303.02 426.04 Z M 285.33 493.26 Q 283.50 496.50 281.40 499.03 Q 279.39 501.46 282.49 500.90 C 284.22 500.59 285.96 499.18 287.58 498.42 Q 345.97 471.25 407.33 442.78 C 410.76 441.19 414.47 440.05 417.50 437.94 Q 419.00 436.89 417.18 436.70 C 415.21 436.50 413.26 436.76 411.27 436.58 Q 400.60 435.59 386.24 434.05 Q 355.95 430.80 323.82 427.64 A 2.15 2.14 -76.2 0 0 321.62 428.98 Q 321.15 430.14 320.54 431.22 Q 302.77 462.45 285.33 493.26 Z"></path></svg></svg> </g></g> <g transform="translate(67,16.257152557373047)"><g fill-rule="" class="tp-name iconsvg-namesvg" transform="translate(0,0)"><g transform="scale(1)"><g><path d="M10.98-15.58L10.98 0 5.58 0 5.58-15.58 0.7-15.58 0.7-20 15.85-20 15.85-15.58 10.98-15.58ZM27.76-15.77L27.76-15.77Q28.45-15.77 29.08-15.66L29.08-15.66 29.38-15.61 28.9-10.56Q28.25-10.72 27.09-10.72L27.09-10.72Q25.33-10.72 24.54-9.92 23.75-9.12 23.75-7.62L23.75-7.62 23.75 0 18.4 0 18.4-15.5 22.38-15.5 23.21-13.02 23.47-13.02Q24.14-14.25 25.34-15.01 26.54-15.77 27.76-15.77ZM45.36 0L41.65 0 40.63-2.05 40.52-2.05Q39.44-0.71 38.32-0.22 37.19 0.27 35.42 0.27L35.42 0.27Q33.23 0.27 31.97-1.04 30.71-2.35 30.71-4.73L30.71-4.73Q30.71-7.21 32.43-8.42 34.16-9.63 37.43-9.78L37.43-9.78 40.01-9.86 40.01-10.08Q40.01-12 38.12-12L38.12-12Q36.43-12 33.82-10.85L33.82-10.85 32.27-14.38Q34.98-15.77 39.11-15.77L39.11-15.77Q42.09-15.77 43.73-14.3 45.36-12.82 45.36-10.16L45.36-10.16 45.36 0ZM37.69-3.5L37.69-3.5Q38.66-3.5 39.35-4.12 40.04-4.73 40.04-5.72L40.04-5.72 40.04-6.92 38.81-6.87Q36.17-6.77 36.17-4.92L36.17-4.92Q36.17-3.5 37.69-3.5ZM64.13 0L58.78 0 58.78-8.45Q58.78-10 58.34-10.79 57.89-11.57 56.91-11.57L56.91-11.57Q55.55-11.57 54.95-10.49 54.35-9.41 54.35-6.79L54.35-6.79 54.35 0 49 0 49-15.5 53.04-15.5 53.71-13.58 54.02-13.58Q54.7-14.68 55.91-15.23 57.13-15.77 58.7-15.77L58.7-15.77Q61.27-15.77 62.7-14.28 64.13-12.79 64.13-10.08L64.13-10.08 64.13 0ZM79.74-4.76L79.74-4.76Q79.74-2.27 78.04-1 76.35 0.27 73.17 0.27L73.17 0.27Q71.45 0.27 70.18 0.09 68.9-0.1 67.58-0.59L67.58-0.59 67.58-4.87Q68.82-4.32 70.31-3.97 71.79-3.61 72.95-3.61L72.95-3.61Q74.69-3.61 74.69-4.4L74.69-4.4Q74.69-4.82 74.2-5.14 73.72-5.46 71.38-6.39L71.38-6.39Q69.25-7.26 68.4-8.38 67.55-9.49 67.55-11.2L67.55-11.2Q67.55-13.36 69.22-14.57 70.89-15.77 73.94-15.77L73.94-15.77Q75.47-15.77 76.82-15.44 78.16-15.1 79.61-14.46L79.61-14.46 78.16-11.01Q77.1-11.49 75.91-11.83 74.72-12.16 73.96-12.16L73.96-12.16Q72.65-12.16 72.65-11.52L72.65-11.52Q72.65-11.12 73.11-10.84 73.57-10.56 75.76-9.7L75.76-9.7Q77.38-9.03 78.19-8.39 78.99-7.74 79.36-6.87 79.74-6.01 79.74-4.76ZM92.17-15.5L92.17-11.49 88.88-11.49 88.88 0 83.53 0 83.53-11.49 81.47-11.49 81.47-14.12 83.64-15.43 83.64-15.69Q83.64-18.75 84.89-20.1 86.14-21.44 88.9-21.44L88.9-21.44Q89.97-21.44 90.92-21.27 91.87-21.11 93.13-20.7L93.13-20.7 91.98-17.24Q91-17.51 90.05-17.51L90.05-17.51Q89.44-17.51 89.16-17.13 88.88-16.76 88.88-15.91L88.88-15.91 88.88-15.5 92.17-15.5ZM109.08-7.78L109.08-7.78Q109.08-3.98 107.04-1.85 104.99 0.27 101.31 0.27L101.31 0.27Q97.78 0.27 95.69-1.9 93.61-4.08 93.61-7.78L93.61-7.78Q93.61-11.57 95.65-13.67 97.7-15.77 101.39-15.77L101.39-15.77Q103.68-15.77 105.43-14.8 107.18-13.83 108.13-12.02 109.08-10.2 109.08-7.78ZM99.04-7.78L99.04-7.78Q99.04-5.79 99.57-4.74 100.11-3.69 101.36-3.69L101.36-3.69Q102.61-3.69 103.12-4.74 103.64-5.79 103.64-7.78L103.64-7.78Q103.64-9.77 103.12-10.78 102.6-11.79 101.34-11.79L101.34-11.79Q100.11-11.79 99.57-10.79 99.04-9.78 99.04-7.78ZM121.49-15.77L121.49-15.77Q122.19-15.77 122.81-15.66L122.81-15.66 123.12-15.61 122.64-10.56Q121.98-10.72 120.82-10.72L120.82-10.72Q119.07-10.72 118.27-9.92 117.48-9.12 117.48-7.62L117.48-7.62 117.48 0 112.13 0 112.13-15.5 116.11-15.5 116.95-13.02 117.21-13.02Q117.88-14.25 119.07-15.01 120.27-15.77 121.49-15.77ZM149.65 0L144.3 0 144.3-8.43Q144.3-10 143.87-10.79 143.44-11.57 142.51-11.57L142.51-11.57Q141.28-11.57 140.71-10.52 140.13-9.47 140.13-7.22L140.13-7.22 140.13 0 134.77 0 134.77-8.43Q134.77-10 134.36-10.79 133.95-11.57 133.03-11.57L133.03-11.57Q131.77-11.57 131.2-10.45 130.63-9.33 130.63-6.79L130.63-6.79 130.63 0 125.28 0 125.28-15.5 129.31-15.5 129.98-13.58 130.3-13.58Q130.91-14.65 132.08-15.21 133.25-15.77 134.74-15.77L134.74-15.77Q138.09-15.77 139.45-13.73L139.45-13.73 139.87-13.73Q140.53-14.69 141.7-15.23 142.87-15.77 144.28-15.77L144.28-15.77Q147.03-15.77 148.34-14.36 149.65-12.95 149.65-10.08L149.65-10.08 149.65 0ZM160.77 0.27L160.77 0.27Q156.9 0.27 154.76-1.79 152.62-3.84 152.62-7.65L152.62-7.65Q152.62-11.57 154.61-13.67 156.59-15.77 160.27-15.77L160.27-15.77Q163.77-15.77 165.68-13.95 167.59-12.12 167.59-8.69L167.59-8.69 167.59-6.31 158.03-6.31Q158.08-5.01 158.98-4.27 159.87-3.53 161.42-3.53L161.42-3.53Q162.83-3.53 164.01-3.8 165.19-4.06 166.57-4.71L166.57-4.71 166.57-0.86Q165.32-0.22 163.98 0.03 162.64 0.27 160.77 0.27ZM160.46-12.13L160.46-12.13Q159.52-12.13 158.88-11.54 158.24-10.94 158.13-9.67L158.13-9.67 162.73-9.67Q162.7-10.79 162.09-11.46 161.49-12.13 160.46-12.13ZM179.97-15.77L179.97-15.77Q180.66-15.77 181.29-15.66L181.29-15.66 181.6-15.61 181.12-10.56Q180.46-10.72 179.3-10.72L179.3-10.72Q177.55-10.72 176.75-9.92 175.96-9.12 175.96-7.62L175.96-7.62 175.96 0 170.61 0 170.61-15.5 174.59-15.5 175.43-13.02 175.69-13.02Q176.36-14.25 177.55-15.01 178.75-15.77 179.97-15.77Z" transform="translate(-0.699999988079071, 21.440000534057617)"></path></g> </g></g> <g fill-rule="" class="tp-slogan iconsvg-slogansvg" fill="#333333" transform="translate(75.76000499725342,27.71000099182129)"> <g transform="scale(1, 1)"><g transform="scale(1)"><path d="M6.54 0L0.93 0L0.93-8.57L3.24-8.57L3.24-1.87L6.54-1.87L6.54 0ZM15.70 0L13.17 0L12.74-1.61L9.96-1.61L9.53 0L6.98 0L9.78-8.60L12.87-8.60L15.70 0ZM10.44-3.50L12.26-3.50L11.89-4.91Q11.77-5.38 11.58-6.12Q11.40-6.87 11.34-7.19L11.34-7.19Q11.29-6.89 11.13-6.21Q10.97-5.52 10.44-3.50L10.44-3.50ZM16.62 0L16.62-8.57L19.61-8.57Q21.36-8.57 22.20-8.05Q23.05-7.53 23.05-6.43L23.05-6.43Q23.05-5.71 22.68-5.20Q22.31-4.69 21.71-4.55L21.71-4.55L21.71-4.49Q22.51-4.28 22.86-3.79Q23.22-3.29 23.22-2.51L23.22-2.51Q23.22-1.34 22.34-0.67Q21.47 0 19.96 0L19.96 0L16.62 0ZM18.94-6.81L18.94-5.28L19.63-5.28Q20.13-5.28 20.41-5.48Q20.68-5.69 20.68-6.09L20.68-6.09Q20.68-6.81 19.59-6.81L19.59-6.81L18.94-6.81ZM19.71-3.59L18.94-3.59L18.94-1.79L19.75-1.79Q20.84-1.79 20.84-2.70L20.84-2.70Q20.84-3.13 20.55-3.36Q20.26-3.59 19.71-3.59L19.71-3.59ZM30.31-2.60L30.31-2.60Q30.31-1.80 29.91-1.19Q29.50-0.57 28.74-0.23Q27.98 0.12 26.95 0.12L26.95 0.12Q26.10 0.12 25.52-0.00Q24.94-0.12 24.31-0.42L24.31-0.42L24.31-2.48Q24.97-2.14 25.69-1.95Q26.40-1.76 27-1.76L27-1.76Q27.52-1.76 27.76-1.94Q28.00-2.12 28.00-2.40L28.00-2.40Q28.00-2.58 27.90-2.71Q27.80-2.84 27.59-2.98Q27.38-3.11 26.45-3.53L26.45-3.53Q25.61-3.91 25.19-4.27Q24.77-4.62 24.57-5.09Q24.37-5.55 24.37-6.18L24.37-6.18Q24.37-7.37 25.23-8.03Q26.09-8.69 27.60-8.69L27.60-8.69Q28.93-8.69 30.31-8.07L30.31-8.07L29.60-6.29Q28.40-6.84 27.53-6.84L27.53-6.84Q27.08-6.84 26.87-6.68Q26.67-6.52 26.67-6.29L26.67-6.29Q26.67-6.04 26.93-5.84Q27.19-5.64 28.34-5.11L28.34-5.11Q29.45-4.61 29.88-4.04Q30.31-3.47 30.31-2.60Z" transform="translate(-0.92578125, 8.689453125)"></path></g></g></g></g></g><defs v-gra="od"></defs></g></svg>